<svg width="20" height="20" viewBox="0 0 20 20" fill="none" xmlns="http://www.w3.org/2000/svg">
<path d="M19.8209 7.21593C19.685 7.04391 19.4857 6.94432 19.2095 6.92168H16.945V6.86736C16.8997 3.07832 13.7837 0 9.99298 0C6.20675 0 3.09081 3.07832 3.05004 6.86736V6.92168H0.762907C0.509284 6.94432 0.30095 7.04391 0.16961 7.21593C-0.00249156 7.43775 -0.0115495 7.71842 0.00656642 7.8316L1.96309 19.3526C2.02649 19.7284 2.35258 20.0045 2.73302 20.0045H17.262C17.647 20.0045 17.9685 19.7329 18.0319 19.3572L19.993 7.83612C20.0111 7.70032 19.9839 7.42417 19.8209 7.21593ZM9.99298 1.56179C12.9142 1.56179 15.3327 3.93843 15.3779 6.85831V6.91716H4.61254V6.85831C4.65783 3.93843 7.07178 1.56179 9.99298 1.56179ZM18.2901 8.48348L16.6008 18.4427H3.39425L1.70041 8.48348H18.2901Z" fill="#202020"/>
</svg>
